<mxfile host="Electron" agent="Mozilla/5.0 (Windows NT 10.0; Win64; x64) AppleWebKit/537.36 (KHTML, like Gecko) draw.io/24.7.17 Chrome/128.0.6613.36 Electron/32.0.1 Safari/537.36" version="24.7.17">
  <diagram name="Страница — 1" id="MIVl5p1enr49xJksiQ6v">
    <mxGraphModel dx="2074" dy="1196" grid="1" gridSize="10" guides="1" tooltips="1" connect="1" arrows="1" fold="1" page="1" pageScale="1" pageWidth="1169" pageHeight="827" math="0" shadow="0">
      <root>
        <mxCell id="0" />
        <mxCell id="1" parent="0" />
        <mxCell id="6HJuL6y66GhY5XT-_tjK-1" value="&lt;blockquote style=&quot;margin: 0px 0px 0px 40px; border: none; padding: 0px; font-size: 20px;&quot;&gt;&lt;font style=&quot;font-size: 20px;&quot;&gt;&lt;b style=&quot;&quot;&gt;User Story:&amp;nbsp;&lt;br style=&quot;&quot;&gt;&lt;/b&gt;&lt;/font&gt;&lt;font style=&quot;font-size: 20px;&quot;&gt;&lt;em style=&quot;box-sizing: border-box;&quot;&gt;Как пользователь приложения [МегаМаркет],&lt;br style=&quot;&quot;&gt;&lt;/em&gt;&lt;/font&gt;&lt;font style=&quot;font-size: 20px;&quot;&gt;&lt;em style=&quot;box-sizing: border-box;&quot;&gt;Я хочу иметь возможность управлять содержимым корзины,&lt;br style=&quot;&quot;&gt;&lt;/em&gt;&lt;/font&gt;&lt;font style=&quot;font-size: 20px;&quot;&gt;&lt;em style=&quot;box-sizing: border-box;&quot;&gt;Чтобы менять состав заказа в любое время до его оплаты.&lt;/em&gt;&lt;/font&gt;&lt;/blockquote&gt;" style="whiteSpace=wrap;html=1;align=left;strokeWidth=2;fontFamily=Comic Sans MS;fontSize=17;spacing=2;" parent="1" vertex="1">
          <mxGeometry x="251" y="80" width="664" height="140" as="geometry" />
        </mxCell>
        <mxCell id="6OoKiLkSBYol4CkCHbGb-2" value="Пользователь" style="rounded=0;whiteSpace=wrap;html=1;fontFamily=Comic Sans MS;fontSize=16;" parent="1" vertex="1">
          <mxGeometry x="78" y="300" width="133" height="67" as="geometry" />
        </mxCell>
        <mxCell id="6OoKiLkSBYol4CkCHbGb-5" value="Корзина" style="rounded=0;whiteSpace=wrap;html=1;fontFamily=Comic Sans MS;fontSize=16;" parent="1" vertex="1">
          <mxGeometry x="516" y="300" width="133" height="67" as="geometry" />
        </mxCell>
        <mxCell id="6OoKiLkSBYol4CkCHbGb-6" value="Склад" style="rounded=0;whiteSpace=wrap;html=1;fontFamily=Comic Sans MS;fontSize=16;" parent="1" vertex="1">
          <mxGeometry x="735" y="300" width="133" height="67" as="geometry" />
        </mxCell>
        <mxCell id="6OoKiLkSBYol4CkCHbGb-7" value="Товар" style="rounded=0;whiteSpace=wrap;html=1;fontFamily=Comic Sans MS;fontSize=16;" parent="1" vertex="1">
          <mxGeometry x="954.5" y="300" width="133" height="67" as="geometry" />
        </mxCell>
        <mxCell id="6OoKiLkSBYol4CkCHbGb-8" value="&lt;ol style=&quot;font-size: 12px;&quot;&gt;&lt;li&gt;Имя пользователя&lt;/li&gt;&lt;li&gt;&lt;span style=&quot;background-color: initial;&quot;&gt;Фамилия&lt;/span&gt;&lt;br&gt;&lt;/li&gt;&lt;li style=&quot;font-size: 12px;&quot;&gt;Имя&lt;/li&gt;&lt;li style=&quot;font-size: 12px;&quot;&gt;Отчество&lt;/li&gt;&lt;li style=&quot;font-size: 12px;&quot;&gt;Дата рождения&lt;/li&gt;&lt;li style=&quot;font-size: 12px;&quot;&gt;Пол&lt;/li&gt;&lt;li style=&quot;font-size: 12px;&quot;&gt;Номер телефона&lt;/li&gt;&lt;li style=&quot;font-size: 12px;&quot;&gt;E-mail&lt;/li&gt;&lt;li style=&quot;font-size: 12px;&quot;&gt;Адрес доставки&lt;/li&gt;&lt;/ol&gt;" style="text;html=1;align=left;verticalAlign=middle;resizable=0;points=[];autosize=1;strokeColor=none;fillColor=none;fontFamily=Comic Sans MS;fontSize=12;horizontal=1;" parent="1" vertex="1">
          <mxGeometry x="55" y="359" width="170" height="170" as="geometry" />
        </mxCell>
        <mxCell id="6OoKiLkSBYol4CkCHbGb-9" value="&lt;ol style=&quot;font-size: 12px;&quot;&gt;&lt;li style=&quot;font-size: 12px;&quot;&gt;Наименование&lt;/li&gt;&lt;li style=&quot;font-size: 12px;&quot;&gt;Единица измерения&lt;/li&gt;&lt;li style=&quot;font-size: 12px;&quot;&gt;Цена за единицу&lt;/li&gt;&lt;li style=&quot;font-size: 12px;&quot;&gt;Описание&lt;/li&gt;&lt;li style=&quot;font-size: 12px;&quot;&gt;Категория&lt;/li&gt;&lt;/ol&gt;" style="text;html=1;align=left;verticalAlign=middle;resizable=0;points=[];autosize=1;strokeColor=none;fillColor=none;fontFamily=Comic Sans MS;fontSize=12;horizontal=1;" parent="1" vertex="1">
          <mxGeometry x="931.5" y="360" width="180" height="110" as="geometry" />
        </mxCell>
        <mxCell id="6OoKiLkSBYol4CkCHbGb-10" value="&lt;ol style=&quot;font-size: 12px;&quot;&gt;&lt;li style=&quot;font-size: 12px;&quot;&gt;Адрес склада&lt;/li&gt;&lt;li style=&quot;font-size: 12px;&quot;&gt;Товар&lt;/li&gt;&lt;li style=&quot;font-size: 12px;&quot;&gt;&lt;span style=&quot;background-color: initial;&quot;&gt;Тип операции&lt;/span&gt;&lt;/li&gt;&lt;li style=&quot;font-size: 12px;&quot;&gt;&lt;span style=&quot;background-color: initial;&quot;&gt;Дата и время операции&lt;/span&gt;&lt;br&gt;&lt;/li&gt;&lt;li&gt;Кол-во Товара&lt;/li&gt;&lt;/ol&gt;" style="text;html=1;align=left;verticalAlign=middle;resizable=0;points=[];autosize=1;strokeColor=none;fillColor=none;fontFamily=Comic Sans MS;fontSize=12;horizontal=1;" parent="1" vertex="1">
          <mxGeometry x="712" y="361" width="200" height="110" as="geometry" />
        </mxCell>
        <mxCell id="6OoKiLkSBYol4CkCHbGb-11" value="&lt;ol style=&quot;font-size: 12px;&quot;&gt;&lt;li style=&quot;font-size: 12px;&quot;&gt;Пользователь&lt;/li&gt;&lt;li style=&quot;font-size: 12px;&quot;&gt;Товар&lt;/li&gt;&lt;li style=&quot;font-size: 12px;&quot;&gt;Кол-во Товара&lt;/li&gt;&lt;li style=&quot;font-size: 12px;&quot;&gt;Кол-во Итого&lt;/li&gt;&lt;li style=&quot;font-size: 12px;&quot;&gt;Сумма Итого&lt;/li&gt;&lt;/ol&gt;" style="text;html=1;align=left;verticalAlign=middle;resizable=0;points=[];autosize=1;strokeColor=none;fillColor=none;fontFamily=Comic Sans MS;fontSize=12;horizontal=1;" parent="1" vertex="1">
          <mxGeometry x="493" y="361" width="150" height="110" as="geometry" />
        </mxCell>
        <mxCell id="6OoKiLkSBYol4CkCHbGb-67" value="" style="edgeStyle=orthogonalEdgeStyle;rounded=0;orthogonalLoop=1;jettySize=auto;html=1;fontFamily=Comic Sans MS;fontSize=16;exitX=0.5;exitY=0;exitDx=0;exitDy=0;" parent="1" source="6OoKiLkSBYol4CkCHbGb-14" target="6OoKiLkSBYol4CkCHbGb-66" edge="1">
          <mxGeometry relative="1" as="geometry">
            <mxPoint x="231.25" y="684" as="sourcePoint" />
            <Array as="points">
              <mxPoint x="230.5" y="624" />
            </Array>
          </mxGeometry>
        </mxCell>
        <mxCell id="6OoKiLkSBYol4CkCHbGb-68" value="Указывает" style="edgeLabel;html=1;align=center;verticalAlign=middle;resizable=0;points=[];fontFamily=Comic Sans MS;fontSize=16;" parent="6OoKiLkSBYol4CkCHbGb-67" vertex="1" connectable="0">
          <mxGeometry x="0.1589" y="1" relative="1" as="geometry">
            <mxPoint x="-2" y="-2" as="offset" />
          </mxGeometry>
        </mxCell>
        <mxCell id="0-SV4qLPW00CwRF8PgyE-1" style="edgeStyle=orthogonalEdgeStyle;rounded=0;orthogonalLoop=1;jettySize=auto;html=1;fontFamily=Comic Sans MS;fontSize=16;exitX=0.5;exitY=1;exitDx=0;exitDy=0;entryX=0;entryY=0.5;entryDx=0;entryDy=0;" parent="1" source="6OoKiLkSBYol4CkCHbGb-14" target="6OoKiLkSBYol4CkCHbGb-17" edge="1">
          <mxGeometry relative="1" as="geometry">
            <mxPoint x="231" y="790" as="sourcePoint" />
            <Array as="points">
              <mxPoint x="231.5" y="850" />
            </Array>
          </mxGeometry>
        </mxCell>
        <mxCell id="0-SV4qLPW00CwRF8PgyE-18" value="Создаёт" style="edgeLabel;html=1;align=center;verticalAlign=middle;resizable=0;points=[];fontFamily=Comic Sans MS;fontSize=16;" parent="0-SV4qLPW00CwRF8PgyE-1" vertex="1" connectable="0">
          <mxGeometry x="0.0307" relative="1" as="geometry">
            <mxPoint x="25" y="-3" as="offset" />
          </mxGeometry>
        </mxCell>
        <mxCell id="6OoKiLkSBYol4CkCHbGb-14" value="Пользователь" style="rounded=0;whiteSpace=wrap;html=1;fontFamily=Comic Sans MS;fontSize=16;" parent="1" vertex="1">
          <mxGeometry x="164.5" y="700" width="133" height="67" as="geometry" />
        </mxCell>
        <mxCell id="6OoKiLkSBYol4CkCHbGb-351" style="edgeStyle=orthogonalEdgeStyle;rounded=0;orthogonalLoop=1;jettySize=auto;html=1;entryX=0.5;entryY=0;entryDx=0;entryDy=0;fontFamily=Comic Sans MS;fontSize=16;exitX=0.5;exitY=1;exitDx=0;exitDy=0;" parent="1" source="6OoKiLkSBYol4CkCHbGb-18" target="6OoKiLkSBYol4CkCHbGb-19" edge="1">
          <mxGeometry relative="1" as="geometry">
            <Array as="points" />
            <mxPoint x="639.25" y="1053" as="targetPoint" />
            <mxPoint x="842.7499999999995" y="970.0000000000002" as="sourcePoint" />
          </mxGeometry>
        </mxCell>
        <mxCell id="0-SV4qLPW00CwRF8PgyE-20" value="&lt;span style=&quot;font-size: 16px;&quot;&gt;Содержит&lt;/span&gt;" style="edgeLabel;html=1;align=center;verticalAlign=middle;resizable=0;points=[];fontFamily=Comic Sans MS;fontSize=16;" parent="6OoKiLkSBYol4CkCHbGb-351" vertex="1" connectable="0">
          <mxGeometry x="0.0944" y="1" relative="1" as="geometry">
            <mxPoint x="-4" y="-8" as="offset" />
          </mxGeometry>
        </mxCell>
        <mxCell id="0-SV4qLPW00CwRF8PgyE-2" style="edgeStyle=orthogonalEdgeStyle;rounded=0;orthogonalLoop=1;jettySize=auto;html=1;entryX=0;entryY=0.5;entryDx=0;entryDy=0;fontFamily=Comic Sans MS;fontSize=16;exitX=0.5;exitY=1;exitDx=0;exitDy=0;" parent="1" source="6OoKiLkSBYol4CkCHbGb-17" target="6OoKiLkSBYol4CkCHbGb-19" edge="1">
          <mxGeometry relative="1" as="geometry">
            <Array as="points">
              <mxPoint x="585.5" y="964" />
            </Array>
          </mxGeometry>
        </mxCell>
        <mxCell id="0-SV4qLPW00CwRF8PgyE-19" value="Добавляет" style="edgeLabel;html=1;align=center;verticalAlign=middle;resizable=0;points=[];fontFamily=Comic Sans MS;fontSize=16;" parent="0-SV4qLPW00CwRF8PgyE-2" vertex="1" connectable="0">
          <mxGeometry x="-0.267" y="-3" relative="1" as="geometry">
            <mxPoint x="98" y="-6" as="offset" />
          </mxGeometry>
        </mxCell>
        <mxCell id="6OoKiLkSBYol4CkCHbGb-17" value="Корзина" style="rounded=0;whiteSpace=wrap;html=1;fontFamily=Comic Sans MS;fontSize=16;" parent="1" vertex="1">
          <mxGeometry x="518.5" y="816" width="133" height="67" as="geometry" />
        </mxCell>
        <mxCell id="0-SV4qLPW00CwRF8PgyE-21" style="edgeStyle=orthogonalEdgeStyle;rounded=0;orthogonalLoop=1;jettySize=auto;html=1;entryX=1;entryY=0.5;entryDx=0;entryDy=0;fontFamily=Comic Sans MS;fontSize=16;exitX=0.5;exitY=0;exitDx=0;exitDy=0;" parent="1" source="6OoKiLkSBYol4CkCHbGb-18" target="6OoKiLkSBYol4CkCHbGb-66" edge="1">
          <mxGeometry relative="1" as="geometry">
            <mxPoint x="935.25" y="684" as="sourcePoint" />
            <Array as="points">
              <mxPoint x="935.5" y="624" />
              <mxPoint x="830.5" y="624" />
            </Array>
          </mxGeometry>
        </mxCell>
        <mxCell id="0-SV4qLPW00CwRF8PgyE-22" value="Проверяет" style="edgeLabel;html=1;align=center;verticalAlign=middle;resizable=0;points=[];fontFamily=Comic Sans MS;fontSize=16;" parent="0-SV4qLPW00CwRF8PgyE-21" vertex="1" connectable="0">
          <mxGeometry x="0.1907" y="1" relative="1" as="geometry">
            <mxPoint x="5" y="-4" as="offset" />
          </mxGeometry>
        </mxCell>
        <mxCell id="6OoKiLkSBYol4CkCHbGb-18" value="Склад" style="rounded=0;whiteSpace=wrap;html=1;fontFamily=Comic Sans MS;fontSize=16;" parent="1" vertex="1">
          <mxGeometry x="868.5" y="700" width="133" height="67" as="geometry" />
        </mxCell>
        <mxCell id="6OoKiLkSBYol4CkCHbGb-19" value="Товар" style="rounded=0;whiteSpace=wrap;html=1;fontFamily=Comic Sans MS;fontSize=16;" parent="1" vertex="1">
          <mxGeometry x="868.5" y="930" width="133" height="67" as="geometry" />
        </mxCell>
        <mxCell id="6OoKiLkSBYol4CkCHbGb-26" value="" style="shape=table;startSize=0;container=1;collapsible=0;childLayout=tableLayout;fontFamily=Comic Sans MS;fontSize=16;" parent="1" vertex="1">
          <mxGeometry x="43.75" y="1099" width="521.0000000000002" height="400" as="geometry" />
        </mxCell>
        <mxCell id="0-SV4qLPW00CwRF8PgyE-6" style="shape=tableRow;horizontal=0;startSize=0;swimlaneHead=0;swimlaneBody=0;strokeColor=inherit;top=0;left=0;bottom=0;right=0;collapsible=0;dropTarget=0;fillColor=none;points=[[0,0.5],[1,0.5]];portConstraint=eastwest;fontFamily=Comic Sans MS;fontSize=16;align=center;" parent="6OoKiLkSBYol4CkCHbGb-26" vertex="1">
          <mxGeometry width="521.0000000000002" height="40" as="geometry" />
        </mxCell>
        <mxCell id="0-SV4qLPW00CwRF8PgyE-7" value="&lt;b style=&quot;font-size: 20px;&quot;&gt;Атрибут&lt;/b&gt;" style="shape=partialRectangle;html=1;whiteSpace=wrap;connectable=0;strokeColor=inherit;overflow=hidden;fillColor=none;top=0;left=0;bottom=0;right=0;pointerEvents=1;fontFamily=Comic Sans MS;fontSize=20;align=center;spacingRight=0;" parent="0-SV4qLPW00CwRF8PgyE-6" vertex="1">
          <mxGeometry width="181" height="40" as="geometry">
            <mxRectangle width="181" height="40" as="alternateBounds" />
          </mxGeometry>
        </mxCell>
        <mxCell id="0-SV4qLPW00CwRF8PgyE-8" value="&lt;b style=&quot;font-size: 20px;&quot;&gt;Описание&lt;/b&gt;" style="shape=partialRectangle;html=1;whiteSpace=wrap;connectable=0;strokeColor=inherit;overflow=hidden;fillColor=none;top=0;left=0;bottom=0;right=0;pointerEvents=1;fontFamily=Comic Sans MS;fontSize=20;" parent="0-SV4qLPW00CwRF8PgyE-6" vertex="1">
          <mxGeometry x="181" width="340" height="40" as="geometry">
            <mxRectangle width="340" height="40" as="alternateBounds" />
          </mxGeometry>
        </mxCell>
        <mxCell id="6OoKiLkSBYol4CkCHbGb-27" value="" style="shape=tableRow;horizontal=0;startSize=0;swimlaneHead=0;swimlaneBody=0;strokeColor=inherit;top=0;left=0;bottom=0;right=0;collapsible=0;dropTarget=0;fillColor=none;points=[[0,0.5],[1,0.5]];portConstraint=eastwest;fontFamily=Comic Sans MS;fontSize=16;align=center;" parent="6OoKiLkSBYol4CkCHbGb-26" vertex="1">
          <mxGeometry y="40" width="521.0000000000002" height="40" as="geometry" />
        </mxCell>
        <mxCell id="6OoKiLkSBYol4CkCHbGb-29" value="&lt;span style=&quot;&quot;&gt;username&lt;/span&gt;" style="shape=partialRectangle;html=1;whiteSpace=wrap;connectable=0;strokeColor=inherit;overflow=hidden;fillColor=none;top=0;left=0;bottom=0;right=0;pointerEvents=1;fontFamily=Comic Sans MS;fontSize=16;align=right;spacingRight=10;fontStyle=1" parent="6OoKiLkSBYol4CkCHbGb-27" vertex="1">
          <mxGeometry width="181" height="40" as="geometry">
            <mxRectangle width="181" height="40" as="alternateBounds" />
          </mxGeometry>
        </mxCell>
        <mxCell id="6OoKiLkSBYol4CkCHbGb-30" value="&lt;span style=&quot;&quot;&gt;Имя пользователя&lt;/span&gt;" style="shape=partialRectangle;html=1;whiteSpace=wrap;connectable=0;strokeColor=inherit;overflow=hidden;fillColor=none;top=0;left=0;bottom=0;right=0;pointerEvents=1;fontFamily=Comic Sans MS;fontSize=16;spacingLeft=10;align=left;" parent="6OoKiLkSBYol4CkCHbGb-27" vertex="1">
          <mxGeometry x="181" width="340" height="40" as="geometry">
            <mxRectangle width="340" height="40" as="alternateBounds" />
          </mxGeometry>
        </mxCell>
        <mxCell id="6OoKiLkSBYol4CkCHbGb-31" value="" style="shape=tableRow;horizontal=0;startSize=0;swimlaneHead=0;swimlaneBody=0;strokeColor=inherit;top=0;left=0;bottom=0;right=0;collapsible=0;dropTarget=0;fillColor=none;points=[[0,0.5],[1,0.5]];portConstraint=eastwest;fontFamily=Comic Sans MS;fontSize=16;" parent="6OoKiLkSBYol4CkCHbGb-26" vertex="1">
          <mxGeometry y="80" width="521.0000000000002" height="40" as="geometry" />
        </mxCell>
        <mxCell id="6OoKiLkSBYol4CkCHbGb-33" value="surname" style="shape=partialRectangle;html=1;whiteSpace=wrap;connectable=0;strokeColor=inherit;overflow=hidden;fillColor=none;top=0;left=0;bottom=0;right=0;pointerEvents=1;fontFamily=Comic Sans MS;fontSize=16;align=right;spacingRight=10;fontStyle=1" parent="6OoKiLkSBYol4CkCHbGb-31" vertex="1">
          <mxGeometry width="181" height="40" as="geometry">
            <mxRectangle width="181" height="40" as="alternateBounds" />
          </mxGeometry>
        </mxCell>
        <mxCell id="6OoKiLkSBYol4CkCHbGb-34" value="Фамилия" style="shape=partialRectangle;html=1;whiteSpace=wrap;connectable=0;strokeColor=inherit;overflow=hidden;fillColor=none;top=0;left=0;bottom=0;right=0;pointerEvents=1;fontFamily=Comic Sans MS;fontSize=16;align=left;spacingLeft=10;" parent="6OoKiLkSBYol4CkCHbGb-31" vertex="1">
          <mxGeometry x="181" width="340" height="40" as="geometry">
            <mxRectangle width="340" height="40" as="alternateBounds" />
          </mxGeometry>
        </mxCell>
        <mxCell id="6OoKiLkSBYol4CkCHbGb-35" value="" style="shape=tableRow;horizontal=0;startSize=0;swimlaneHead=0;swimlaneBody=0;strokeColor=inherit;top=0;left=0;bottom=0;right=0;collapsible=0;dropTarget=0;fillColor=none;points=[[0,0.5],[1,0.5]];portConstraint=eastwest;fontFamily=Comic Sans MS;fontSize=16;" parent="6OoKiLkSBYol4CkCHbGb-26" vertex="1">
          <mxGeometry y="120" width="521.0000000000002" height="40" as="geometry" />
        </mxCell>
        <mxCell id="6OoKiLkSBYol4CkCHbGb-37" value="name" style="shape=partialRectangle;html=1;whiteSpace=wrap;connectable=0;strokeColor=inherit;overflow=hidden;fillColor=none;top=0;left=0;bottom=0;right=0;pointerEvents=1;fontFamily=Comic Sans MS;fontSize=16;align=right;spacingRight=10;fontStyle=1" parent="6OoKiLkSBYol4CkCHbGb-35" vertex="1">
          <mxGeometry width="181" height="40" as="geometry">
            <mxRectangle width="181" height="40" as="alternateBounds" />
          </mxGeometry>
        </mxCell>
        <mxCell id="6OoKiLkSBYol4CkCHbGb-38" value="Имя" style="shape=partialRectangle;html=1;whiteSpace=wrap;connectable=0;strokeColor=inherit;overflow=hidden;fillColor=none;top=0;left=0;bottom=0;right=0;pointerEvents=1;fontFamily=Comic Sans MS;fontSize=16;align=left;spacingLeft=10;" parent="6OoKiLkSBYol4CkCHbGb-35" vertex="1">
          <mxGeometry x="181" width="340" height="40" as="geometry">
            <mxRectangle width="340" height="40" as="alternateBounds" />
          </mxGeometry>
        </mxCell>
        <mxCell id="6OoKiLkSBYol4CkCHbGb-39" value="" style="shape=tableRow;horizontal=0;startSize=0;swimlaneHead=0;swimlaneBody=0;strokeColor=inherit;top=0;left=0;bottom=0;right=0;collapsible=0;dropTarget=0;fillColor=none;points=[[0,0.5],[1,0.5]];portConstraint=eastwest;fontFamily=Comic Sans MS;fontSize=16;" parent="6OoKiLkSBYol4CkCHbGb-26" vertex="1">
          <mxGeometry y="160" width="521.0000000000002" height="40" as="geometry" />
        </mxCell>
        <mxCell id="6OoKiLkSBYol4CkCHbGb-41" value="patronymic" style="shape=partialRectangle;html=1;whiteSpace=wrap;connectable=0;strokeColor=inherit;overflow=hidden;fillColor=none;top=0;left=0;bottom=0;right=0;pointerEvents=1;fontFamily=Comic Sans MS;fontSize=16;align=right;spacingRight=10;fontStyle=1" parent="6OoKiLkSBYol4CkCHbGb-39" vertex="1">
          <mxGeometry width="181" height="40" as="geometry">
            <mxRectangle width="181" height="40" as="alternateBounds" />
          </mxGeometry>
        </mxCell>
        <mxCell id="6OoKiLkSBYol4CkCHbGb-42" value="Отчество" style="shape=partialRectangle;html=1;whiteSpace=wrap;connectable=0;strokeColor=inherit;overflow=hidden;fillColor=none;top=0;left=0;bottom=0;right=0;pointerEvents=1;fontFamily=Comic Sans MS;fontSize=16;align=left;spacingLeft=10;" parent="6OoKiLkSBYol4CkCHbGb-39" vertex="1">
          <mxGeometry x="181" width="340" height="40" as="geometry">
            <mxRectangle width="340" height="40" as="alternateBounds" />
          </mxGeometry>
        </mxCell>
        <mxCell id="6OoKiLkSBYol4CkCHbGb-43" value="" style="shape=tableRow;horizontal=0;startSize=0;swimlaneHead=0;swimlaneBody=0;strokeColor=inherit;top=0;left=0;bottom=0;right=0;collapsible=0;dropTarget=0;fillColor=none;points=[[0,0.5],[1,0.5]];portConstraint=eastwest;fontFamily=Comic Sans MS;fontSize=16;" parent="6OoKiLkSBYol4CkCHbGb-26" vertex="1">
          <mxGeometry y="200" width="521.0000000000002" height="40" as="geometry" />
        </mxCell>
        <mxCell id="6OoKiLkSBYol4CkCHbGb-45" value="birthdate" style="shape=partialRectangle;html=1;whiteSpace=wrap;connectable=0;strokeColor=inherit;overflow=hidden;fillColor=none;top=0;left=0;bottom=0;right=0;pointerEvents=1;fontFamily=Comic Sans MS;fontSize=16;align=right;spacingRight=10;fontStyle=1" parent="6OoKiLkSBYol4CkCHbGb-43" vertex="1">
          <mxGeometry width="181" height="40" as="geometry">
            <mxRectangle width="181" height="40" as="alternateBounds" />
          </mxGeometry>
        </mxCell>
        <mxCell id="6OoKiLkSBYol4CkCHbGb-46" value="&lt;span style=&quot;text-align: right;&quot;&gt;Дата рождения&lt;/span&gt;" style="shape=partialRectangle;html=1;whiteSpace=wrap;connectable=0;strokeColor=inherit;overflow=hidden;fillColor=none;top=0;left=0;bottom=0;right=0;pointerEvents=1;fontFamily=Comic Sans MS;fontSize=16;align=left;spacingLeft=10;" parent="6OoKiLkSBYol4CkCHbGb-43" vertex="1">
          <mxGeometry x="181" width="340" height="40" as="geometry">
            <mxRectangle width="340" height="40" as="alternateBounds" />
          </mxGeometry>
        </mxCell>
        <mxCell id="6OoKiLkSBYol4CkCHbGb-47" value="" style="shape=tableRow;horizontal=0;startSize=0;swimlaneHead=0;swimlaneBody=0;strokeColor=inherit;top=0;left=0;bottom=0;right=0;collapsible=0;dropTarget=0;fillColor=none;points=[[0,0.5],[1,0.5]];portConstraint=eastwest;fontFamily=Comic Sans MS;fontSize=16;" parent="6OoKiLkSBYol4CkCHbGb-26" vertex="1">
          <mxGeometry y="240" width="521.0000000000002" height="40" as="geometry" />
        </mxCell>
        <mxCell id="6OoKiLkSBYol4CkCHbGb-49" value="gender" style="shape=partialRectangle;html=1;whiteSpace=wrap;connectable=0;strokeColor=inherit;overflow=hidden;fillColor=none;top=0;left=0;bottom=0;right=0;pointerEvents=1;fontFamily=Comic Sans MS;fontSize=16;align=right;spacingRight=10;fontStyle=1" parent="6OoKiLkSBYol4CkCHbGb-47" vertex="1">
          <mxGeometry width="181" height="40" as="geometry">
            <mxRectangle width="181" height="40" as="alternateBounds" />
          </mxGeometry>
        </mxCell>
        <mxCell id="6OoKiLkSBYol4CkCHbGb-50" value="Пол" style="shape=partialRectangle;html=1;whiteSpace=wrap;connectable=0;strokeColor=inherit;overflow=hidden;fillColor=none;top=0;left=0;bottom=0;right=0;pointerEvents=1;fontFamily=Comic Sans MS;fontSize=16;align=left;spacingLeft=10;" parent="6OoKiLkSBYol4CkCHbGb-47" vertex="1">
          <mxGeometry x="181" width="340" height="40" as="geometry">
            <mxRectangle width="340" height="40" as="alternateBounds" />
          </mxGeometry>
        </mxCell>
        <mxCell id="6OoKiLkSBYol4CkCHbGb-51" value="" style="shape=tableRow;horizontal=0;startSize=0;swimlaneHead=0;swimlaneBody=0;strokeColor=inherit;top=0;left=0;bottom=0;right=0;collapsible=0;dropTarget=0;fillColor=none;points=[[0,0.5],[1,0.5]];portConstraint=eastwest;fontFamily=Comic Sans MS;fontSize=16;" parent="6OoKiLkSBYol4CkCHbGb-26" vertex="1">
          <mxGeometry y="280" width="521.0000000000002" height="40" as="geometry" />
        </mxCell>
        <mxCell id="6OoKiLkSBYol4CkCHbGb-53" value="phone_number" style="shape=partialRectangle;html=1;whiteSpace=wrap;connectable=0;strokeColor=inherit;overflow=hidden;fillColor=none;top=0;left=0;bottom=0;right=0;pointerEvents=1;fontFamily=Comic Sans MS;fontSize=16;align=right;spacingRight=10;fontStyle=1" parent="6OoKiLkSBYol4CkCHbGb-51" vertex="1">
          <mxGeometry width="181" height="40" as="geometry">
            <mxRectangle width="181" height="40" as="alternateBounds" />
          </mxGeometry>
        </mxCell>
        <mxCell id="6OoKiLkSBYol4CkCHbGb-54" value="&lt;span style=&quot;text-align: right;&quot;&gt;Контактный номер телефона&lt;/span&gt;" style="shape=partialRectangle;html=1;whiteSpace=wrap;connectable=0;strokeColor=inherit;overflow=hidden;fillColor=none;top=0;left=0;bottom=0;right=0;pointerEvents=1;fontFamily=Comic Sans MS;fontSize=16;align=left;spacingLeft=10;" parent="6OoKiLkSBYol4CkCHbGb-51" vertex="1">
          <mxGeometry x="181" width="340" height="40" as="geometry">
            <mxRectangle width="340" height="40" as="alternateBounds" />
          </mxGeometry>
        </mxCell>
        <mxCell id="6OoKiLkSBYol4CkCHbGb-55" value="" style="shape=tableRow;horizontal=0;startSize=0;swimlaneHead=0;swimlaneBody=0;strokeColor=inherit;top=0;left=0;bottom=0;right=0;collapsible=0;dropTarget=0;fillColor=none;points=[[0,0.5],[1,0.5]];portConstraint=eastwest;fontFamily=Comic Sans MS;fontSize=16;" parent="6OoKiLkSBYol4CkCHbGb-26" vertex="1">
          <mxGeometry y="320" width="521.0000000000002" height="40" as="geometry" />
        </mxCell>
        <mxCell id="6OoKiLkSBYol4CkCHbGb-57" value="email" style="shape=partialRectangle;html=1;whiteSpace=wrap;connectable=0;strokeColor=inherit;overflow=hidden;fillColor=none;top=0;left=0;bottom=0;right=0;pointerEvents=1;fontFamily=Comic Sans MS;fontSize=16;align=right;spacingRight=10;fontStyle=1" parent="6OoKiLkSBYol4CkCHbGb-55" vertex="1">
          <mxGeometry width="181" height="40" as="geometry">
            <mxRectangle width="181" height="40" as="alternateBounds" />
          </mxGeometry>
        </mxCell>
        <mxCell id="6OoKiLkSBYol4CkCHbGb-58" value="Адрес электронной почты" style="shape=partialRectangle;html=1;whiteSpace=wrap;connectable=0;strokeColor=inherit;overflow=hidden;fillColor=none;top=0;left=0;bottom=0;right=0;pointerEvents=1;fontFamily=Comic Sans MS;fontSize=16;align=left;spacingLeft=10;" parent="6OoKiLkSBYol4CkCHbGb-55" vertex="1">
          <mxGeometry x="181" width="340" height="40" as="geometry">
            <mxRectangle width="340" height="40" as="alternateBounds" />
          </mxGeometry>
        </mxCell>
        <mxCell id="6OoKiLkSBYol4CkCHbGb-59" value="" style="shape=tableRow;horizontal=0;startSize=0;swimlaneHead=0;swimlaneBody=0;strokeColor=inherit;top=0;left=0;bottom=0;right=0;collapsible=0;dropTarget=0;fillColor=none;points=[[0,0.5],[1,0.5]];portConstraint=eastwest;fontFamily=Comic Sans MS;fontSize=16;" parent="6OoKiLkSBYol4CkCHbGb-26" vertex="1">
          <mxGeometry y="360" width="521.0000000000002" height="40" as="geometry" />
        </mxCell>
        <mxCell id="6OoKiLkSBYol4CkCHbGb-61" value="shipping_address" style="shape=partialRectangle;html=1;whiteSpace=wrap;connectable=0;strokeColor=inherit;overflow=hidden;fillColor=none;top=0;left=0;bottom=0;right=0;pointerEvents=1;fontFamily=Comic Sans MS;fontSize=16;align=right;spacingRight=10;fontStyle=1" parent="6OoKiLkSBYol4CkCHbGb-59" vertex="1">
          <mxGeometry width="181" height="40" as="geometry">
            <mxRectangle width="181" height="40" as="alternateBounds" />
          </mxGeometry>
        </mxCell>
        <mxCell id="6OoKiLkSBYol4CkCHbGb-62" value="&lt;b&gt;Адрес (дочерняя сущность)&lt;/b&gt;" style="shape=partialRectangle;html=1;whiteSpace=wrap;connectable=0;strokeColor=inherit;overflow=hidden;fillColor=none;top=0;left=0;bottom=0;right=0;pointerEvents=1;fontFamily=Comic Sans MS;fontSize=16;align=left;spacingLeft=10;" parent="6OoKiLkSBYol4CkCHbGb-59" vertex="1">
          <mxGeometry x="181" width="340" height="40" as="geometry">
            <mxRectangle width="340" height="40" as="alternateBounds" />
          </mxGeometry>
        </mxCell>
        <mxCell id="6OoKiLkSBYol4CkCHbGb-63" value="Объект: &lt;b&gt;Пользователь (родительская сущность)&lt;/b&gt;" style="text;html=1;align=center;verticalAlign=middle;resizable=0;points=[];autosize=1;strokeColor=none;fillColor=none;fontSize=20;fontFamily=Comic Sans MS;" parent="1" vertex="1">
          <mxGeometry x="43.75" y="1050" width="500" height="40" as="geometry" />
        </mxCell>
        <mxCell id="6OoKiLkSBYol4CkCHbGb-64" value="Адрес" style="rounded=0;whiteSpace=wrap;html=1;fontFamily=Comic Sans MS;fontSize=16;" parent="1" vertex="1">
          <mxGeometry x="297" y="300" width="133" height="67" as="geometry" />
        </mxCell>
        <mxCell id="6OoKiLkSBYol4CkCHbGb-65" value="&lt;ol style=&quot;font-size: 12px;&quot;&gt;&lt;li&gt;&lt;span style=&quot;background-color: initial;&quot;&gt;Название адреса&lt;/span&gt;&lt;/li&gt;&lt;li&gt;&lt;span style=&quot;background-color: initial;&quot;&gt;Почтовый индекс&lt;/span&gt;&lt;br&gt;&lt;/li&gt;&lt;li style=&quot;font-size: 12px;&quot;&gt;&lt;span style=&quot;background-color: initial;&quot;&gt;Город&lt;/span&gt;&lt;/li&gt;&lt;li style=&quot;font-size: 12px;&quot;&gt;&lt;span style=&quot;background-color: initial;&quot;&gt;Улица&lt;/span&gt;&lt;/li&gt;&lt;li style=&quot;font-size: 12px;&quot;&gt;&lt;span style=&quot;background-color: initial;&quot;&gt;Номер дома&lt;/span&gt;&lt;br&gt;&lt;/li&gt;&lt;li style=&quot;font-size: 12px;&quot;&gt;&lt;span style=&quot;background-color: initial;&quot;&gt;Подъезд&lt;/span&gt;&lt;/li&gt;&lt;li style=&quot;font-size: 12px;&quot;&gt;&lt;span style=&quot;background-color: initial;&quot;&gt;Этаж&lt;/span&gt;&lt;/li&gt;&lt;li style=&quot;font-size: 12px;&quot;&gt;&lt;span style=&quot;background-color: initial;&quot;&gt;Квартира&lt;/span&gt;&lt;/li&gt;&lt;li style=&quot;font-size: 12px;&quot;&gt;&lt;span style=&quot;background-color: initial;&quot;&gt;Домофон&lt;/span&gt;&lt;/li&gt;&lt;/ol&gt;" style="text;html=1;align=left;verticalAlign=middle;resizable=0;points=[];autosize=1;strokeColor=none;fillColor=none;fontFamily=Comic Sans MS;fontSize=12;horizontal=1;" parent="1" vertex="1">
          <mxGeometry x="274" y="360" width="170" height="170" as="geometry" />
        </mxCell>
        <mxCell id="6OoKiLkSBYol4CkCHbGb-66" value="Адрес" style="rounded=0;whiteSpace=wrap;html=1;fontFamily=Comic Sans MS;fontSize=16;" parent="1" vertex="1">
          <mxGeometry x="518.75" y="590" width="133" height="67" as="geometry" />
        </mxCell>
        <mxCell id="6OoKiLkSBYol4CkCHbGb-69" value="" style="shape=table;startSize=0;container=1;collapsible=0;childLayout=tableLayout;fontFamily=Comic Sans MS;fontSize=16;" parent="1" vertex="1">
          <mxGeometry x="603.75" y="1220" width="519" height="400" as="geometry" />
        </mxCell>
        <mxCell id="0-SV4qLPW00CwRF8PgyE-9" style="shape=tableRow;horizontal=0;startSize=0;swimlaneHead=0;swimlaneBody=0;strokeColor=inherit;top=0;left=0;bottom=0;right=0;collapsible=0;dropTarget=0;fillColor=none;points=[[0,0.5],[1,0.5]];portConstraint=eastwest;fontFamily=Comic Sans MS;fontSize=16;align=center;" parent="6OoKiLkSBYol4CkCHbGb-69" vertex="1">
          <mxGeometry width="519" height="40" as="geometry" />
        </mxCell>
        <mxCell id="0-SV4qLPW00CwRF8PgyE-10" value="&lt;b&gt;Атрибут&lt;/b&gt;" style="shape=partialRectangle;html=1;whiteSpace=wrap;connectable=0;strokeColor=inherit;overflow=hidden;fillColor=none;top=0;left=0;bottom=0;right=0;pointerEvents=1;fontFamily=Comic Sans MS;fontSize=20;align=center;spacingRight=0;" parent="0-SV4qLPW00CwRF8PgyE-9" vertex="1">
          <mxGeometry width="186" height="40" as="geometry">
            <mxRectangle width="186" height="40" as="alternateBounds" />
          </mxGeometry>
        </mxCell>
        <mxCell id="0-SV4qLPW00CwRF8PgyE-11" value="&lt;b&gt;Описание&lt;/b&gt;" style="shape=partialRectangle;html=1;whiteSpace=wrap;connectable=0;strokeColor=inherit;overflow=hidden;fillColor=none;top=0;left=0;bottom=0;right=0;pointerEvents=1;fontFamily=Comic Sans MS;fontSize=20;" parent="0-SV4qLPW00CwRF8PgyE-9" vertex="1">
          <mxGeometry x="186" width="333" height="40" as="geometry">
            <mxRectangle width="333" height="40" as="alternateBounds" />
          </mxGeometry>
        </mxCell>
        <mxCell id="6OoKiLkSBYol4CkCHbGb-70" value="" style="shape=tableRow;horizontal=0;startSize=0;swimlaneHead=0;swimlaneBody=0;strokeColor=inherit;top=0;left=0;bottom=0;right=0;collapsible=0;dropTarget=0;fillColor=none;points=[[0,0.5],[1,0.5]];portConstraint=eastwest;fontFamily=Comic Sans MS;fontSize=16;align=center;" parent="6OoKiLkSBYol4CkCHbGb-69" vertex="1">
          <mxGeometry y="40" width="519" height="40" as="geometry" />
        </mxCell>
        <mxCell id="6OoKiLkSBYol4CkCHbGb-71" value="&lt;span style=&quot;font-size: 16px; font-weight: 700;&quot;&gt;address_name&lt;/span&gt;" style="shape=partialRectangle;html=1;whiteSpace=wrap;connectable=0;strokeColor=inherit;overflow=hidden;fillColor=none;top=0;left=0;bottom=0;right=0;pointerEvents=1;fontFamily=Comic Sans MS;fontSize=20;align=right;spacingRight=10;" parent="6OoKiLkSBYol4CkCHbGb-70" vertex="1">
          <mxGeometry width="186" height="40" as="geometry">
            <mxRectangle width="186" height="40" as="alternateBounds" />
          </mxGeometry>
        </mxCell>
        <mxCell id="6OoKiLkSBYol4CkCHbGb-72" value="&lt;span style=&quot;font-size: 16px;&quot;&gt;Название адреса&lt;/span&gt;" style="shape=partialRectangle;html=1;whiteSpace=wrap;connectable=0;strokeColor=inherit;overflow=hidden;fillColor=none;top=0;left=0;bottom=0;right=0;pointerEvents=1;fontFamily=Comic Sans MS;fontSize=20;align=left;spacingLeft=10;" parent="6OoKiLkSBYol4CkCHbGb-70" vertex="1">
          <mxGeometry x="186" width="333" height="40" as="geometry">
            <mxRectangle width="333" height="40" as="alternateBounds" />
          </mxGeometry>
        </mxCell>
        <mxCell id="6OoKiLkSBYol4CkCHbGb-73" value="" style="shape=tableRow;horizontal=0;startSize=0;swimlaneHead=0;swimlaneBody=0;strokeColor=inherit;top=0;left=0;bottom=0;right=0;collapsible=0;dropTarget=0;fillColor=none;points=[[0,0.5],[1,0.5]];portConstraint=eastwest;fontFamily=Comic Sans MS;fontSize=16;" parent="6OoKiLkSBYol4CkCHbGb-69" vertex="1">
          <mxGeometry y="80" width="519" height="40" as="geometry" />
        </mxCell>
        <mxCell id="6OoKiLkSBYol4CkCHbGb-74" value="postcode" style="shape=partialRectangle;html=1;whiteSpace=wrap;connectable=0;strokeColor=inherit;overflow=hidden;fillColor=none;top=0;left=0;bottom=0;right=0;pointerEvents=1;fontFamily=Comic Sans MS;fontSize=16;align=right;spacingRight=10;fontStyle=1" parent="6OoKiLkSBYol4CkCHbGb-73" vertex="1">
          <mxGeometry width="186" height="40" as="geometry">
            <mxRectangle width="186" height="40" as="alternateBounds" />
          </mxGeometry>
        </mxCell>
        <mxCell id="6OoKiLkSBYol4CkCHbGb-75" value="&lt;span style=&quot;text-align: right;&quot;&gt;Почтовый индекс&lt;/span&gt;" style="shape=partialRectangle;html=1;whiteSpace=wrap;connectable=0;strokeColor=inherit;overflow=hidden;fillColor=none;top=0;left=0;bottom=0;right=0;pointerEvents=1;fontFamily=Comic Sans MS;fontSize=16;align=left;spacingLeft=10;" parent="6OoKiLkSBYol4CkCHbGb-73" vertex="1">
          <mxGeometry x="186" width="333" height="40" as="geometry">
            <mxRectangle width="333" height="40" as="alternateBounds" />
          </mxGeometry>
        </mxCell>
        <mxCell id="6OoKiLkSBYol4CkCHbGb-76" value="" style="shape=tableRow;horizontal=0;startSize=0;swimlaneHead=0;swimlaneBody=0;strokeColor=inherit;top=0;left=0;bottom=0;right=0;collapsible=0;dropTarget=0;fillColor=none;points=[[0,0.5],[1,0.5]];portConstraint=eastwest;fontFamily=Comic Sans MS;fontSize=16;" parent="6OoKiLkSBYol4CkCHbGb-69" vertex="1">
          <mxGeometry y="120" width="519" height="40" as="geometry" />
        </mxCell>
        <mxCell id="6OoKiLkSBYol4CkCHbGb-77" value="city" style="shape=partialRectangle;html=1;whiteSpace=wrap;connectable=0;strokeColor=inherit;overflow=hidden;fillColor=none;top=0;left=0;bottom=0;right=0;pointerEvents=1;fontFamily=Comic Sans MS;fontSize=16;align=right;spacingRight=10;fontStyle=1" parent="6OoKiLkSBYol4CkCHbGb-76" vertex="1">
          <mxGeometry width="186" height="40" as="geometry">
            <mxRectangle width="186" height="40" as="alternateBounds" />
          </mxGeometry>
        </mxCell>
        <mxCell id="6OoKiLkSBYol4CkCHbGb-78" value="&lt;span style=&quot;text-align: right;&quot;&gt;Город&lt;/span&gt;" style="shape=partialRectangle;html=1;whiteSpace=wrap;connectable=0;strokeColor=inherit;overflow=hidden;fillColor=none;top=0;left=0;bottom=0;right=0;pointerEvents=1;fontFamily=Comic Sans MS;fontSize=16;align=left;spacingLeft=10;" parent="6OoKiLkSBYol4CkCHbGb-76" vertex="1">
          <mxGeometry x="186" width="333" height="40" as="geometry">
            <mxRectangle width="333" height="40" as="alternateBounds" />
          </mxGeometry>
        </mxCell>
        <mxCell id="6OoKiLkSBYol4CkCHbGb-79" value="" style="shape=tableRow;horizontal=0;startSize=0;swimlaneHead=0;swimlaneBody=0;strokeColor=inherit;top=0;left=0;bottom=0;right=0;collapsible=0;dropTarget=0;fillColor=none;points=[[0,0.5],[1,0.5]];portConstraint=eastwest;fontFamily=Comic Sans MS;fontSize=16;" parent="6OoKiLkSBYol4CkCHbGb-69" vertex="1">
          <mxGeometry y="160" width="519" height="40" as="geometry" />
        </mxCell>
        <mxCell id="6OoKiLkSBYol4CkCHbGb-80" value="street" style="shape=partialRectangle;html=1;whiteSpace=wrap;connectable=0;strokeColor=inherit;overflow=hidden;fillColor=none;top=0;left=0;bottom=0;right=0;pointerEvents=1;fontFamily=Comic Sans MS;fontSize=16;align=right;spacingRight=10;fontStyle=1" parent="6OoKiLkSBYol4CkCHbGb-79" vertex="1">
          <mxGeometry width="186" height="40" as="geometry">
            <mxRectangle width="186" height="40" as="alternateBounds" />
          </mxGeometry>
        </mxCell>
        <mxCell id="6OoKiLkSBYol4CkCHbGb-81" value="Улица" style="shape=partialRectangle;html=1;whiteSpace=wrap;connectable=0;strokeColor=inherit;overflow=hidden;fillColor=none;top=0;left=0;bottom=0;right=0;pointerEvents=1;fontFamily=Comic Sans MS;fontSize=16;align=left;spacingLeft=10;" parent="6OoKiLkSBYol4CkCHbGb-79" vertex="1">
          <mxGeometry x="186" width="333" height="40" as="geometry">
            <mxRectangle width="333" height="40" as="alternateBounds" />
          </mxGeometry>
        </mxCell>
        <mxCell id="6OoKiLkSBYol4CkCHbGb-82" value="" style="shape=tableRow;horizontal=0;startSize=0;swimlaneHead=0;swimlaneBody=0;strokeColor=inherit;top=0;left=0;bottom=0;right=0;collapsible=0;dropTarget=0;fillColor=none;points=[[0,0.5],[1,0.5]];portConstraint=eastwest;fontFamily=Comic Sans MS;fontSize=16;" parent="6OoKiLkSBYol4CkCHbGb-69" vertex="1">
          <mxGeometry y="200" width="519" height="40" as="geometry" />
        </mxCell>
        <mxCell id="6OoKiLkSBYol4CkCHbGb-83" value="building_number" style="shape=partialRectangle;html=1;whiteSpace=wrap;connectable=0;strokeColor=inherit;overflow=hidden;fillColor=none;top=0;left=0;bottom=0;right=0;pointerEvents=1;fontFamily=Comic Sans MS;fontSize=16;align=right;spacingRight=10;fontStyle=1" parent="6OoKiLkSBYol4CkCHbGb-82" vertex="1">
          <mxGeometry width="186" height="40" as="geometry">
            <mxRectangle width="186" height="40" as="alternateBounds" />
          </mxGeometry>
        </mxCell>
        <mxCell id="6OoKiLkSBYol4CkCHbGb-84" value="Номер дома" style="shape=partialRectangle;html=1;whiteSpace=wrap;connectable=0;strokeColor=inherit;overflow=hidden;fillColor=none;top=0;left=0;bottom=0;right=0;pointerEvents=1;fontFamily=Comic Sans MS;fontSize=16;align=left;spacingLeft=10;" parent="6OoKiLkSBYol4CkCHbGb-82" vertex="1">
          <mxGeometry x="186" width="333" height="40" as="geometry">
            <mxRectangle width="333" height="40" as="alternateBounds" />
          </mxGeometry>
        </mxCell>
        <mxCell id="6OoKiLkSBYol4CkCHbGb-85" value="" style="shape=tableRow;horizontal=0;startSize=0;swimlaneHead=0;swimlaneBody=0;strokeColor=inherit;top=0;left=0;bottom=0;right=0;collapsible=0;dropTarget=0;fillColor=none;points=[[0,0.5],[1,0.5]];portConstraint=eastwest;fontFamily=Comic Sans MS;fontSize=16;" parent="6OoKiLkSBYol4CkCHbGb-69" vertex="1">
          <mxGeometry y="240" width="519" height="40" as="geometry" />
        </mxCell>
        <mxCell id="6OoKiLkSBYol4CkCHbGb-86" value="entryway" style="shape=partialRectangle;html=1;whiteSpace=wrap;connectable=0;strokeColor=inherit;overflow=hidden;fillColor=none;top=0;left=0;bottom=0;right=0;pointerEvents=1;fontFamily=Comic Sans MS;fontSize=16;align=right;spacingRight=10;fontStyle=1" parent="6OoKiLkSBYol4CkCHbGb-85" vertex="1">
          <mxGeometry width="186" height="40" as="geometry">
            <mxRectangle width="186" height="40" as="alternateBounds" />
          </mxGeometry>
        </mxCell>
        <mxCell id="6OoKiLkSBYol4CkCHbGb-87" value="Подъезд" style="shape=partialRectangle;html=1;whiteSpace=wrap;connectable=0;strokeColor=inherit;overflow=hidden;fillColor=none;top=0;left=0;bottom=0;right=0;pointerEvents=1;fontFamily=Comic Sans MS;fontSize=16;align=left;spacingLeft=10;" parent="6OoKiLkSBYol4CkCHbGb-85" vertex="1">
          <mxGeometry x="186" width="333" height="40" as="geometry">
            <mxRectangle width="333" height="40" as="alternateBounds" />
          </mxGeometry>
        </mxCell>
        <mxCell id="6OoKiLkSBYol4CkCHbGb-88" value="" style="shape=tableRow;horizontal=0;startSize=0;swimlaneHead=0;swimlaneBody=0;strokeColor=inherit;top=0;left=0;bottom=0;right=0;collapsible=0;dropTarget=0;fillColor=none;points=[[0,0.5],[1,0.5]];portConstraint=eastwest;fontFamily=Comic Sans MS;fontSize=16;" parent="6OoKiLkSBYol4CkCHbGb-69" vertex="1">
          <mxGeometry y="280" width="519" height="40" as="geometry" />
        </mxCell>
        <mxCell id="6OoKiLkSBYol4CkCHbGb-89" value="floor" style="shape=partialRectangle;html=1;whiteSpace=wrap;connectable=0;strokeColor=inherit;overflow=hidden;fillColor=none;top=0;left=0;bottom=0;right=0;pointerEvents=1;fontFamily=Comic Sans MS;fontSize=16;align=right;spacingRight=10;fontStyle=1" parent="6OoKiLkSBYol4CkCHbGb-88" vertex="1">
          <mxGeometry width="186" height="40" as="geometry">
            <mxRectangle width="186" height="40" as="alternateBounds" />
          </mxGeometry>
        </mxCell>
        <mxCell id="6OoKiLkSBYol4CkCHbGb-90" value="&lt;span style=&quot;text-align: right;&quot;&gt;Этаж&lt;/span&gt;" style="shape=partialRectangle;html=1;whiteSpace=wrap;connectable=0;strokeColor=inherit;overflow=hidden;fillColor=none;top=0;left=0;bottom=0;right=0;pointerEvents=1;fontFamily=Comic Sans MS;fontSize=16;align=left;spacingLeft=10;" parent="6OoKiLkSBYol4CkCHbGb-88" vertex="1">
          <mxGeometry x="186" width="333" height="40" as="geometry">
            <mxRectangle width="333" height="40" as="alternateBounds" />
          </mxGeometry>
        </mxCell>
        <mxCell id="6OoKiLkSBYol4CkCHbGb-91" value="" style="shape=tableRow;horizontal=0;startSize=0;swimlaneHead=0;swimlaneBody=0;strokeColor=inherit;top=0;left=0;bottom=0;right=0;collapsible=0;dropTarget=0;fillColor=none;points=[[0,0.5],[1,0.5]];portConstraint=eastwest;fontFamily=Comic Sans MS;fontSize=16;" parent="6OoKiLkSBYol4CkCHbGb-69" vertex="1">
          <mxGeometry y="320" width="519" height="40" as="geometry" />
        </mxCell>
        <mxCell id="6OoKiLkSBYol4CkCHbGb-92" value="apartment" style="shape=partialRectangle;html=1;whiteSpace=wrap;connectable=0;strokeColor=inherit;overflow=hidden;fillColor=none;top=0;left=0;bottom=0;right=0;pointerEvents=1;fontFamily=Comic Sans MS;fontSize=16;align=right;spacingRight=10;fontStyle=1" parent="6OoKiLkSBYol4CkCHbGb-91" vertex="1">
          <mxGeometry width="186" height="40" as="geometry">
            <mxRectangle width="186" height="40" as="alternateBounds" />
          </mxGeometry>
        </mxCell>
        <mxCell id="6OoKiLkSBYol4CkCHbGb-93" value="Квартира" style="shape=partialRectangle;html=1;whiteSpace=wrap;connectable=0;strokeColor=inherit;overflow=hidden;fillColor=none;top=0;left=0;bottom=0;right=0;pointerEvents=1;fontFamily=Comic Sans MS;fontSize=16;align=left;spacingLeft=10;" parent="6OoKiLkSBYol4CkCHbGb-91" vertex="1">
          <mxGeometry x="186" width="333" height="40" as="geometry">
            <mxRectangle width="333" height="40" as="alternateBounds" />
          </mxGeometry>
        </mxCell>
        <mxCell id="6OoKiLkSBYol4CkCHbGb-94" value="" style="shape=tableRow;horizontal=0;startSize=0;swimlaneHead=0;swimlaneBody=0;strokeColor=inherit;top=0;left=0;bottom=0;right=0;collapsible=0;dropTarget=0;fillColor=none;points=[[0,0.5],[1,0.5]];portConstraint=eastwest;fontFamily=Comic Sans MS;fontSize=16;" parent="6OoKiLkSBYol4CkCHbGb-69" vertex="1">
          <mxGeometry y="360" width="519" height="40" as="geometry" />
        </mxCell>
        <mxCell id="6OoKiLkSBYol4CkCHbGb-95" value="intercom" style="shape=partialRectangle;html=1;whiteSpace=wrap;connectable=0;strokeColor=inherit;overflow=hidden;fillColor=none;top=0;left=0;bottom=0;right=0;pointerEvents=1;fontFamily=Comic Sans MS;fontSize=16;align=right;spacingRight=10;fontStyle=1" parent="6OoKiLkSBYol4CkCHbGb-94" vertex="1">
          <mxGeometry width="186" height="40" as="geometry">
            <mxRectangle width="186" height="40" as="alternateBounds" />
          </mxGeometry>
        </mxCell>
        <mxCell id="6OoKiLkSBYol4CkCHbGb-96" value="&lt;span style=&quot;text-align: right;&quot;&gt;Домофон&lt;/span&gt;" style="shape=partialRectangle;html=1;whiteSpace=wrap;connectable=0;strokeColor=inherit;overflow=hidden;fillColor=none;top=0;left=0;bottom=0;right=0;pointerEvents=1;fontFamily=Comic Sans MS;fontSize=16;align=left;spacingLeft=10;" parent="6OoKiLkSBYol4CkCHbGb-94" vertex="1">
          <mxGeometry x="186" width="333" height="40" as="geometry">
            <mxRectangle width="333" height="40" as="alternateBounds" />
          </mxGeometry>
        </mxCell>
        <mxCell id="6OoKiLkSBYol4CkCHbGb-97" value="Объект: &lt;b&gt;Адрес (дочерняя сущность)&lt;/b&gt;" style="text;html=1;align=center;verticalAlign=middle;resizable=0;points=[];autosize=1;strokeColor=none;fillColor=none;fontSize=20;fontFamily=Comic Sans MS;" parent="1" vertex="1">
          <mxGeometry x="603.75" y="1171" width="370" height="40" as="geometry" />
        </mxCell>
        <mxCell id="6OoKiLkSBYol4CkCHbGb-136" value="" style="shape=table;startSize=0;container=1;collapsible=0;childLayout=tableLayout;fontFamily=Comic Sans MS;fontSize=16;" parent="1" vertex="1">
          <mxGeometry x="43.75" y="1903" width="520" height="240" as="geometry" />
        </mxCell>
        <mxCell id="6OoKiLkSBYol4CkCHbGb-137" value="" style="shape=tableRow;horizontal=0;startSize=0;swimlaneHead=0;swimlaneBody=0;strokeColor=inherit;top=0;left=0;bottom=0;right=0;collapsible=0;dropTarget=0;fillColor=none;points=[[0,0.5],[1,0.5]];portConstraint=eastwest;fontFamily=Comic Sans MS;fontSize=16;align=center;" parent="6OoKiLkSBYol4CkCHbGb-136" vertex="1">
          <mxGeometry width="520" height="40" as="geometry" />
        </mxCell>
        <mxCell id="6OoKiLkSBYol4CkCHbGb-138" value="&lt;b style=&quot;font-size: 20px;&quot;&gt;Атрибут&lt;/b&gt;" style="shape=partialRectangle;html=1;whiteSpace=wrap;connectable=0;strokeColor=inherit;overflow=hidden;fillColor=none;top=0;left=0;bottom=0;right=0;pointerEvents=1;fontFamily=Comic Sans MS;fontSize=20;align=center;spacingRight=0;" parent="6OoKiLkSBYol4CkCHbGb-137" vertex="1">
          <mxGeometry width="181" height="40" as="geometry">
            <mxRectangle width="181" height="40" as="alternateBounds" />
          </mxGeometry>
        </mxCell>
        <mxCell id="6OoKiLkSBYol4CkCHbGb-139" value="&lt;b style=&quot;font-size: 20px;&quot;&gt;Описание&lt;/b&gt;" style="shape=partialRectangle;html=1;whiteSpace=wrap;connectable=0;strokeColor=inherit;overflow=hidden;fillColor=none;top=0;left=0;bottom=0;right=0;pointerEvents=1;fontFamily=Comic Sans MS;fontSize=20;" parent="6OoKiLkSBYol4CkCHbGb-137" vertex="1">
          <mxGeometry x="181" width="339" height="40" as="geometry">
            <mxRectangle width="339" height="40" as="alternateBounds" />
          </mxGeometry>
        </mxCell>
        <mxCell id="6OoKiLkSBYol4CkCHbGb-140" value="" style="shape=tableRow;horizontal=0;startSize=0;swimlaneHead=0;swimlaneBody=0;strokeColor=inherit;top=0;left=0;bottom=0;right=0;collapsible=0;dropTarget=0;fillColor=none;points=[[0,0.5],[1,0.5]];portConstraint=eastwest;fontFamily=Comic Sans MS;fontSize=16;" parent="6OoKiLkSBYol4CkCHbGb-136" vertex="1">
          <mxGeometry y="40" width="520" height="40" as="geometry" />
        </mxCell>
        <mxCell id="6OoKiLkSBYol4CkCHbGb-141" value="product_name" style="shape=partialRectangle;html=1;whiteSpace=wrap;connectable=0;strokeColor=inherit;overflow=hidden;fillColor=none;top=0;left=0;bottom=0;right=0;pointerEvents=1;fontFamily=Comic Sans MS;fontSize=16;align=right;spacingRight=10;fontStyle=1" parent="6OoKiLkSBYol4CkCHbGb-140" vertex="1">
          <mxGeometry width="181" height="40" as="geometry">
            <mxRectangle width="181" height="40" as="alternateBounds" />
          </mxGeometry>
        </mxCell>
        <mxCell id="6OoKiLkSBYol4CkCHbGb-142" value="&lt;span style=&quot;text-align: right;&quot;&gt;Наименование&lt;/span&gt;" style="shape=partialRectangle;html=1;whiteSpace=wrap;connectable=0;strokeColor=inherit;overflow=hidden;fillColor=none;top=0;left=0;bottom=0;right=0;pointerEvents=1;fontFamily=Comic Sans MS;fontSize=16;align=left;spacingLeft=10;" parent="6OoKiLkSBYol4CkCHbGb-140" vertex="1">
          <mxGeometry x="181" width="339" height="40" as="geometry">
            <mxRectangle width="339" height="40" as="alternateBounds" />
          </mxGeometry>
        </mxCell>
        <mxCell id="6OoKiLkSBYol4CkCHbGb-143" value="" style="shape=tableRow;horizontal=0;startSize=0;swimlaneHead=0;swimlaneBody=0;strokeColor=inherit;top=0;left=0;bottom=0;right=0;collapsible=0;dropTarget=0;fillColor=none;points=[[0,0.5],[1,0.5]];portConstraint=eastwest;fontFamily=Comic Sans MS;fontSize=16;" parent="6OoKiLkSBYol4CkCHbGb-136" vertex="1">
          <mxGeometry y="80" width="520" height="40" as="geometry" />
        </mxCell>
        <mxCell id="6OoKiLkSBYol4CkCHbGb-144" value="product_unit" style="shape=partialRectangle;html=1;whiteSpace=wrap;connectable=0;strokeColor=inherit;overflow=hidden;fillColor=none;top=0;left=0;bottom=0;right=0;pointerEvents=1;fontFamily=Comic Sans MS;fontSize=16;align=right;spacingRight=10;fontStyle=1" parent="6OoKiLkSBYol4CkCHbGb-143" vertex="1">
          <mxGeometry width="181" height="40" as="geometry">
            <mxRectangle width="181" height="40" as="alternateBounds" />
          </mxGeometry>
        </mxCell>
        <mxCell id="6OoKiLkSBYol4CkCHbGb-145" value="&lt;span style=&quot;text-align: right;&quot;&gt;Единица измерения&lt;/span&gt;" style="shape=partialRectangle;html=1;whiteSpace=wrap;connectable=0;strokeColor=inherit;overflow=hidden;fillColor=none;top=0;left=0;bottom=0;right=0;pointerEvents=1;fontFamily=Comic Sans MS;fontSize=16;align=left;spacingLeft=10;" parent="6OoKiLkSBYol4CkCHbGb-143" vertex="1">
          <mxGeometry x="181" width="339" height="40" as="geometry">
            <mxRectangle width="339" height="40" as="alternateBounds" />
          </mxGeometry>
        </mxCell>
        <mxCell id="6OoKiLkSBYol4CkCHbGb-146" value="" style="shape=tableRow;horizontal=0;startSize=0;swimlaneHead=0;swimlaneBody=0;strokeColor=inherit;top=0;left=0;bottom=0;right=0;collapsible=0;dropTarget=0;fillColor=none;points=[[0,0.5],[1,0.5]];portConstraint=eastwest;fontFamily=Comic Sans MS;fontSize=16;" parent="6OoKiLkSBYol4CkCHbGb-136" vertex="1">
          <mxGeometry y="120" width="520" height="40" as="geometry" />
        </mxCell>
        <mxCell id="6OoKiLkSBYol4CkCHbGb-147" value="product_price" style="shape=partialRectangle;html=1;whiteSpace=wrap;connectable=0;strokeColor=inherit;overflow=hidden;fillColor=none;top=0;left=0;bottom=0;right=0;pointerEvents=1;fontFamily=Comic Sans MS;fontSize=16;align=right;spacingRight=10;fontStyle=1" parent="6OoKiLkSBYol4CkCHbGb-146" vertex="1">
          <mxGeometry width="181" height="40" as="geometry">
            <mxRectangle width="181" height="40" as="alternateBounds" />
          </mxGeometry>
        </mxCell>
        <mxCell id="6OoKiLkSBYol4CkCHbGb-148" value="&lt;span style=&quot;text-align: right;&quot;&gt;Цена за единицу&lt;/span&gt;" style="shape=partialRectangle;html=1;whiteSpace=wrap;connectable=0;strokeColor=inherit;overflow=hidden;fillColor=none;top=0;left=0;bottom=0;right=0;pointerEvents=1;fontFamily=Comic Sans MS;fontSize=16;align=left;spacingLeft=10;" parent="6OoKiLkSBYol4CkCHbGb-146" vertex="1">
          <mxGeometry x="181" width="339" height="40" as="geometry">
            <mxRectangle width="339" height="40" as="alternateBounds" />
          </mxGeometry>
        </mxCell>
        <mxCell id="6OoKiLkSBYol4CkCHbGb-149" value="" style="shape=tableRow;horizontal=0;startSize=0;swimlaneHead=0;swimlaneBody=0;strokeColor=inherit;top=0;left=0;bottom=0;right=0;collapsible=0;dropTarget=0;fillColor=none;points=[[0,0.5],[1,0.5]];portConstraint=eastwest;fontFamily=Comic Sans MS;fontSize=16;" parent="6OoKiLkSBYol4CkCHbGb-136" vertex="1">
          <mxGeometry y="160" width="520" height="40" as="geometry" />
        </mxCell>
        <mxCell id="6OoKiLkSBYol4CkCHbGb-150" value="product_desc" style="shape=partialRectangle;html=1;whiteSpace=wrap;connectable=0;strokeColor=inherit;overflow=hidden;fillColor=none;top=0;left=0;bottom=0;right=0;pointerEvents=1;fontFamily=Comic Sans MS;fontSize=16;align=right;spacingRight=10;fontStyle=1" parent="6OoKiLkSBYol4CkCHbGb-149" vertex="1">
          <mxGeometry width="181" height="40" as="geometry">
            <mxRectangle width="181" height="40" as="alternateBounds" />
          </mxGeometry>
        </mxCell>
        <mxCell id="6OoKiLkSBYol4CkCHbGb-151" value="&lt;span style=&quot;text-align: right;&quot;&gt;Описание&lt;/span&gt;" style="shape=partialRectangle;html=1;whiteSpace=wrap;connectable=0;strokeColor=inherit;overflow=hidden;fillColor=none;top=0;left=0;bottom=0;right=0;pointerEvents=1;fontFamily=Comic Sans MS;fontSize=16;align=left;spacingLeft=10;" parent="6OoKiLkSBYol4CkCHbGb-149" vertex="1">
          <mxGeometry x="181" width="339" height="40" as="geometry">
            <mxRectangle width="339" height="40" as="alternateBounds" />
          </mxGeometry>
        </mxCell>
        <mxCell id="6OoKiLkSBYol4CkCHbGb-233" style="shape=tableRow;horizontal=0;startSize=0;swimlaneHead=0;swimlaneBody=0;strokeColor=inherit;top=0;left=0;bottom=0;right=0;collapsible=0;dropTarget=0;fillColor=none;points=[[0,0.5],[1,0.5]];portConstraint=eastwest;fontFamily=Comic Sans MS;fontSize=16;" parent="6OoKiLkSBYol4CkCHbGb-136" vertex="1">
          <mxGeometry y="200" width="520" height="40" as="geometry" />
        </mxCell>
        <mxCell id="6OoKiLkSBYol4CkCHbGb-234" value="product_category" style="shape=partialRectangle;html=1;whiteSpace=wrap;connectable=0;strokeColor=inherit;overflow=hidden;fillColor=none;top=0;left=0;bottom=0;right=0;pointerEvents=1;fontFamily=Comic Sans MS;fontSize=16;align=right;spacingRight=10;fontStyle=1" parent="6OoKiLkSBYol4CkCHbGb-233" vertex="1">
          <mxGeometry width="181" height="40" as="geometry">
            <mxRectangle width="181" height="40" as="alternateBounds" />
          </mxGeometry>
        </mxCell>
        <mxCell id="6OoKiLkSBYol4CkCHbGb-235" value="Группировка Товаров по смыслу" style="shape=partialRectangle;html=1;whiteSpace=wrap;connectable=0;strokeColor=inherit;overflow=hidden;fillColor=none;top=0;left=0;bottom=0;right=0;pointerEvents=1;fontFamily=Comic Sans MS;fontSize=16;align=left;spacingLeft=10;" parent="6OoKiLkSBYol4CkCHbGb-233" vertex="1">
          <mxGeometry x="181" width="339" height="40" as="geometry">
            <mxRectangle width="339" height="40" as="alternateBounds" />
          </mxGeometry>
        </mxCell>
        <mxCell id="6OoKiLkSBYol4CkCHbGb-164" value="Объект: &lt;b&gt;Товар (дочерняя сущность)&lt;/b&gt;" style="text;html=1;align=center;verticalAlign=middle;resizable=0;points=[];autosize=1;strokeColor=none;fillColor=none;fontSize=20;fontFamily=Comic Sans MS;" parent="1" vertex="1">
          <mxGeometry x="43.75" y="1854" width="370" height="40" as="geometry" />
        </mxCell>
        <mxCell id="6OoKiLkSBYol4CkCHbGb-215" value="Объект: &lt;b&gt;Корзина (&lt;/b&gt;&lt;b&gt;дочерняя&amp;nbsp;&lt;/b&gt;&lt;b&gt;сущность)&lt;/b&gt;" style="text;html=1;align=center;verticalAlign=middle;resizable=0;points=[];autosize=1;strokeColor=none;fillColor=none;fontSize=20;fontFamily=Comic Sans MS;" parent="1" vertex="1">
          <mxGeometry x="43.75" y="1531" width="390" height="40" as="geometry" />
        </mxCell>
        <mxCell id="6OoKiLkSBYol4CkCHbGb-232" value="Объект: &lt;b&gt;Склад (&lt;/b&gt;&lt;b&gt;родительская&amp;nbsp;&lt;/b&gt;&lt;b&gt;сущность)&lt;/b&gt;" style="text;html=1;align=center;verticalAlign=middle;resizable=0;points=[];autosize=1;strokeColor=none;fillColor=none;fontSize=20;fontFamily=Comic Sans MS;" parent="1" vertex="1">
          <mxGeometry x="603.75" y="1654" width="420" height="40" as="geometry" />
        </mxCell>
        <mxCell id="6OoKiLkSBYol4CkCHbGb-256" value="" style="shape=table;startSize=0;container=1;collapsible=0;childLayout=tableLayout;fontFamily=Comic Sans MS;fontSize=16;" parent="1" vertex="1">
          <mxGeometry x="43.75" y="1580" width="519" height="240" as="geometry" />
        </mxCell>
        <mxCell id="0-SV4qLPW00CwRF8PgyE-12" style="shape=tableRow;horizontal=0;startSize=0;swimlaneHead=0;swimlaneBody=0;strokeColor=inherit;top=0;left=0;bottom=0;right=0;collapsible=0;dropTarget=0;fillColor=none;points=[[0,0.5],[1,0.5]];portConstraint=eastwest;fontFamily=Comic Sans MS;fontSize=16;align=center;" parent="6OoKiLkSBYol4CkCHbGb-256" vertex="1">
          <mxGeometry width="519" height="40" as="geometry" />
        </mxCell>
        <mxCell id="0-SV4qLPW00CwRF8PgyE-13" value="&lt;b&gt;Атрибут&lt;/b&gt;" style="shape=partialRectangle;html=1;whiteSpace=wrap;connectable=0;strokeColor=inherit;overflow=hidden;fillColor=none;top=0;left=0;bottom=0;right=0;pointerEvents=1;fontFamily=Comic Sans MS;fontSize=20;align=center;spacingRight=0;" parent="0-SV4qLPW00CwRF8PgyE-12" vertex="1">
          <mxGeometry width="181" height="40" as="geometry">
            <mxRectangle width="181" height="40" as="alternateBounds" />
          </mxGeometry>
        </mxCell>
        <mxCell id="0-SV4qLPW00CwRF8PgyE-14" value="&lt;b&gt;Описание&lt;/b&gt;" style="shape=partialRectangle;html=1;whiteSpace=wrap;connectable=0;strokeColor=inherit;overflow=hidden;fillColor=none;top=0;left=0;bottom=0;right=0;pointerEvents=1;fontFamily=Comic Sans MS;fontSize=20;" parent="0-SV4qLPW00CwRF8PgyE-12" vertex="1">
          <mxGeometry x="181" width="338" height="40" as="geometry">
            <mxRectangle width="338" height="40" as="alternateBounds" />
          </mxGeometry>
        </mxCell>
        <mxCell id="6OoKiLkSBYol4CkCHbGb-257" value="" style="shape=tableRow;horizontal=0;startSize=0;swimlaneHead=0;swimlaneBody=0;strokeColor=inherit;top=0;left=0;bottom=0;right=0;collapsible=0;dropTarget=0;fillColor=none;points=[[0,0.5],[1,0.5]];portConstraint=eastwest;fontFamily=Comic Sans MS;fontSize=16;align=center;" parent="6OoKiLkSBYol4CkCHbGb-256" vertex="1">
          <mxGeometry y="40" width="519" height="40" as="geometry" />
        </mxCell>
        <mxCell id="6OoKiLkSBYol4CkCHbGb-258" value="&lt;span style=&quot;font-size: 16px; font-weight: 700;&quot;&gt;user&lt;/span&gt;" style="shape=partialRectangle;html=1;whiteSpace=wrap;connectable=0;strokeColor=inherit;overflow=hidden;fillColor=none;top=0;left=0;bottom=0;right=0;pointerEvents=1;fontFamily=Comic Sans MS;fontSize=20;align=right;spacingRight=10;" parent="6OoKiLkSBYol4CkCHbGb-257" vertex="1">
          <mxGeometry width="181" height="40" as="geometry">
            <mxRectangle width="181" height="40" as="alternateBounds" />
          </mxGeometry>
        </mxCell>
        <mxCell id="6OoKiLkSBYol4CkCHbGb-259" value="&lt;b style=&quot;font-size: 16px; text-wrap: nowrap; text-align: center;&quot;&gt;Пользователь (родительская сущность)&lt;/b&gt;" style="shape=partialRectangle;html=1;whiteSpace=wrap;connectable=0;strokeColor=inherit;overflow=hidden;fillColor=none;top=0;left=0;bottom=0;right=0;pointerEvents=1;fontFamily=Comic Sans MS;fontSize=20;spacingLeft=10;align=left;verticalAlign=middle;horizontal=1;spacing=2;" parent="6OoKiLkSBYol4CkCHbGb-257" vertex="1">
          <mxGeometry x="181" width="338" height="40" as="geometry">
            <mxRectangle width="338" height="40" as="alternateBounds" />
          </mxGeometry>
        </mxCell>
        <mxCell id="6OoKiLkSBYol4CkCHbGb-260" value="" style="shape=tableRow;horizontal=0;startSize=0;swimlaneHead=0;swimlaneBody=0;strokeColor=inherit;top=0;left=0;bottom=0;right=0;collapsible=0;dropTarget=0;fillColor=none;points=[[0,0.5],[1,0.5]];portConstraint=eastwest;fontFamily=Comic Sans MS;fontSize=16;" parent="6OoKiLkSBYol4CkCHbGb-256" vertex="1">
          <mxGeometry y="80" width="519" height="40" as="geometry" />
        </mxCell>
        <mxCell id="6OoKiLkSBYol4CkCHbGb-261" value="product" style="shape=partialRectangle;html=1;whiteSpace=wrap;connectable=0;strokeColor=inherit;overflow=hidden;fillColor=none;top=0;left=0;bottom=0;right=0;pointerEvents=1;fontFamily=Comic Sans MS;fontSize=16;align=right;spacingRight=10;fontStyle=1" parent="6OoKiLkSBYol4CkCHbGb-260" vertex="1">
          <mxGeometry width="181" height="40" as="geometry">
            <mxRectangle width="181" height="40" as="alternateBounds" />
          </mxGeometry>
        </mxCell>
        <mxCell id="6OoKiLkSBYol4CkCHbGb-262" value="&lt;b style=&quot;text-wrap: nowrap; text-align: center;&quot;&gt;Товар (дочерняя сущность)&lt;/b&gt;" style="shape=partialRectangle;html=1;whiteSpace=wrap;connectable=0;strokeColor=inherit;overflow=hidden;fillColor=none;top=0;left=0;bottom=0;right=0;pointerEvents=1;fontFamily=Comic Sans MS;fontSize=16;align=left;spacingLeft=10;" parent="6OoKiLkSBYol4CkCHbGb-260" vertex="1">
          <mxGeometry x="181" width="338" height="40" as="geometry">
            <mxRectangle width="338" height="40" as="alternateBounds" />
          </mxGeometry>
        </mxCell>
        <mxCell id="6OoKiLkSBYol4CkCHbGb-331" style="shape=tableRow;horizontal=0;startSize=0;swimlaneHead=0;swimlaneBody=0;strokeColor=inherit;top=0;left=0;bottom=0;right=0;collapsible=0;dropTarget=0;fillColor=none;points=[[0,0.5],[1,0.5]];portConstraint=eastwest;fontFamily=Comic Sans MS;fontSize=16;" parent="6OoKiLkSBYol4CkCHbGb-256" vertex="1">
          <mxGeometry y="120" width="519" height="40" as="geometry" />
        </mxCell>
        <mxCell id="6OoKiLkSBYol4CkCHbGb-332" value="product_qty" style="shape=partialRectangle;html=1;whiteSpace=wrap;connectable=0;strokeColor=inherit;overflow=hidden;fillColor=none;top=0;left=0;bottom=0;right=0;pointerEvents=1;fontFamily=Comic Sans MS;fontSize=16;align=right;spacingRight=10;fontStyle=1" parent="6OoKiLkSBYol4CkCHbGb-331" vertex="1">
          <mxGeometry width="181" height="40" as="geometry">
            <mxRectangle width="181" height="40" as="alternateBounds" />
          </mxGeometry>
        </mxCell>
        <mxCell id="6OoKiLkSBYol4CkCHbGb-333" value="Кол-во выбранного Товара в Корзине" style="shape=partialRectangle;html=1;whiteSpace=wrap;connectable=0;strokeColor=inherit;overflow=hidden;fillColor=none;top=0;left=0;bottom=0;right=0;pointerEvents=1;fontFamily=Comic Sans MS;fontSize=16;align=left;spacingLeft=10;" parent="6OoKiLkSBYol4CkCHbGb-331" vertex="1">
          <mxGeometry x="181" width="338" height="40" as="geometry">
            <mxRectangle width="338" height="40" as="alternateBounds" />
          </mxGeometry>
        </mxCell>
        <mxCell id="6OoKiLkSBYol4CkCHbGb-334" style="shape=tableRow;horizontal=0;startSize=0;swimlaneHead=0;swimlaneBody=0;strokeColor=inherit;top=0;left=0;bottom=0;right=0;collapsible=0;dropTarget=0;fillColor=none;points=[[0,0.5],[1,0.5]];portConstraint=eastwest;fontFamily=Comic Sans MS;fontSize=16;" parent="6OoKiLkSBYol4CkCHbGb-256" vertex="1">
          <mxGeometry y="160" width="519" height="40" as="geometry" />
        </mxCell>
        <mxCell id="6OoKiLkSBYol4CkCHbGb-335" value="total_qty" style="shape=partialRectangle;html=1;whiteSpace=wrap;connectable=0;strokeColor=inherit;overflow=hidden;fillColor=none;top=0;left=0;bottom=0;right=0;pointerEvents=1;fontFamily=Comic Sans MS;fontSize=16;align=right;spacingRight=10;fontStyle=1" parent="6OoKiLkSBYol4CkCHbGb-334" vertex="1">
          <mxGeometry width="181" height="40" as="geometry">
            <mxRectangle width="181" height="40" as="alternateBounds" />
          </mxGeometry>
        </mxCell>
        <mxCell id="6OoKiLkSBYol4CkCHbGb-336" value="Общее кол-во Товаров в Корзине" style="shape=partialRectangle;html=1;whiteSpace=wrap;connectable=0;strokeColor=inherit;overflow=hidden;fillColor=none;top=0;left=0;bottom=0;right=0;pointerEvents=1;fontFamily=Comic Sans MS;fontSize=16;align=left;spacingLeft=10;" parent="6OoKiLkSBYol4CkCHbGb-334" vertex="1">
          <mxGeometry x="181" width="338" height="40" as="geometry">
            <mxRectangle width="338" height="40" as="alternateBounds" />
          </mxGeometry>
        </mxCell>
        <mxCell id="PXfpkqmEYtwdTuUkvPk8-1" style="shape=tableRow;horizontal=0;startSize=0;swimlaneHead=0;swimlaneBody=0;strokeColor=inherit;top=0;left=0;bottom=0;right=0;collapsible=0;dropTarget=0;fillColor=none;points=[[0,0.5],[1,0.5]];portConstraint=eastwest;fontFamily=Comic Sans MS;fontSize=16;" parent="6OoKiLkSBYol4CkCHbGb-256" vertex="1">
          <mxGeometry y="200" width="519" height="40" as="geometry" />
        </mxCell>
        <mxCell id="PXfpkqmEYtwdTuUkvPk8-2" value="total_cost" style="shape=partialRectangle;html=1;whiteSpace=wrap;connectable=0;strokeColor=inherit;overflow=hidden;fillColor=none;top=0;left=0;bottom=0;right=0;pointerEvents=1;fontFamily=Comic Sans MS;fontSize=16;align=right;spacingRight=10;fontStyle=1" parent="PXfpkqmEYtwdTuUkvPk8-1" vertex="1">
          <mxGeometry width="181" height="40" as="geometry">
            <mxRectangle width="181" height="40" as="alternateBounds" />
          </mxGeometry>
        </mxCell>
        <mxCell id="PXfpkqmEYtwdTuUkvPk8-3" value="Общая стоимость Корзины" style="shape=partialRectangle;html=1;whiteSpace=wrap;connectable=0;strokeColor=inherit;overflow=hidden;fillColor=none;top=0;left=0;bottom=0;right=0;pointerEvents=1;fontFamily=Comic Sans MS;fontSize=16;align=left;spacingLeft=10;" parent="PXfpkqmEYtwdTuUkvPk8-1" vertex="1">
          <mxGeometry x="181" width="338" height="40" as="geometry">
            <mxRectangle width="338" height="40" as="alternateBounds" />
          </mxGeometry>
        </mxCell>
        <mxCell id="6OoKiLkSBYol4CkCHbGb-303" value="" style="shape=table;startSize=0;container=1;collapsible=0;childLayout=tableLayout;fontFamily=Comic Sans MS;fontSize=16;" parent="1" vertex="1">
          <mxGeometry x="603.75" y="1703" width="522" height="240" as="geometry" />
        </mxCell>
        <mxCell id="6OoKiLkSBYol4CkCHbGb-304" value="" style="shape=tableRow;horizontal=0;startSize=0;swimlaneHead=0;swimlaneBody=0;strokeColor=inherit;top=0;left=0;bottom=0;right=0;collapsible=0;dropTarget=0;fillColor=none;points=[[0,0.5],[1,0.5]];portConstraint=eastwest;fontFamily=Comic Sans MS;fontSize=16;align=center;" parent="6OoKiLkSBYol4CkCHbGb-303" vertex="1">
          <mxGeometry width="522" height="40" as="geometry" />
        </mxCell>
        <mxCell id="6OoKiLkSBYol4CkCHbGb-305" value="&lt;b style=&quot;font-size: 20px;&quot;&gt;Атрибут&lt;/b&gt;" style="shape=partialRectangle;html=1;whiteSpace=wrap;connectable=0;strokeColor=inherit;overflow=hidden;fillColor=none;top=0;left=0;bottom=0;right=0;pointerEvents=1;fontFamily=Comic Sans MS;fontSize=20;align=center;spacingRight=0;" parent="6OoKiLkSBYol4CkCHbGb-304" vertex="1">
          <mxGeometry width="186" height="40" as="geometry">
            <mxRectangle width="186" height="40" as="alternateBounds" />
          </mxGeometry>
        </mxCell>
        <mxCell id="6OoKiLkSBYol4CkCHbGb-306" value="&lt;b style=&quot;font-size: 20px;&quot;&gt;Описание&lt;/b&gt;" style="shape=partialRectangle;html=1;whiteSpace=wrap;connectable=0;strokeColor=inherit;overflow=hidden;fillColor=none;top=0;left=0;bottom=0;right=0;pointerEvents=1;fontFamily=Comic Sans MS;fontSize=20;" parent="6OoKiLkSBYol4CkCHbGb-304" vertex="1">
          <mxGeometry x="186" width="336" height="40" as="geometry">
            <mxRectangle width="336" height="40" as="alternateBounds" />
          </mxGeometry>
        </mxCell>
        <mxCell id="6OoKiLkSBYol4CkCHbGb-307" value="" style="shape=tableRow;horizontal=0;startSize=0;swimlaneHead=0;swimlaneBody=0;strokeColor=inherit;top=0;left=0;bottom=0;right=0;collapsible=0;dropTarget=0;fillColor=none;points=[[0,0.5],[1,0.5]];portConstraint=eastwest;fontFamily=Comic Sans MS;fontSize=16;" parent="6OoKiLkSBYol4CkCHbGb-303" vertex="1">
          <mxGeometry y="40" width="522" height="40" as="geometry" />
        </mxCell>
        <mxCell id="6OoKiLkSBYol4CkCHbGb-308" value="warehouse_address" style="shape=partialRectangle;html=1;whiteSpace=wrap;connectable=0;strokeColor=inherit;overflow=hidden;fillColor=none;top=0;left=0;bottom=0;right=0;pointerEvents=1;fontFamily=Comic Sans MS;fontSize=16;align=right;spacingRight=10;fontStyle=1" parent="6OoKiLkSBYol4CkCHbGb-307" vertex="1">
          <mxGeometry width="186" height="40" as="geometry">
            <mxRectangle width="186" height="40" as="alternateBounds" />
          </mxGeometry>
        </mxCell>
        <mxCell id="6OoKiLkSBYol4CkCHbGb-309" value="&lt;b&gt;Адрес (дочерняя сущность)&lt;/b&gt;" style="shape=partialRectangle;html=1;whiteSpace=wrap;connectable=0;strokeColor=inherit;overflow=hidden;fillColor=none;top=0;left=0;bottom=0;right=0;pointerEvents=1;fontFamily=Comic Sans MS;fontSize=16;align=left;spacingLeft=10;" parent="6OoKiLkSBYol4CkCHbGb-307" vertex="1">
          <mxGeometry x="186" width="336" height="40" as="geometry">
            <mxRectangle width="336" height="40" as="alternateBounds" />
          </mxGeometry>
        </mxCell>
        <mxCell id="6OoKiLkSBYol4CkCHbGb-310" value="" style="shape=tableRow;horizontal=0;startSize=0;swimlaneHead=0;swimlaneBody=0;strokeColor=inherit;top=0;left=0;bottom=0;right=0;collapsible=0;dropTarget=0;fillColor=none;points=[[0,0.5],[1,0.5]];portConstraint=eastwest;fontFamily=Comic Sans MS;fontSize=16;" parent="6OoKiLkSBYol4CkCHbGb-303" vertex="1">
          <mxGeometry y="80" width="522" height="40" as="geometry" />
        </mxCell>
        <mxCell id="6OoKiLkSBYol4CkCHbGb-311" value="&lt;span style=&quot;&quot;&gt;product&lt;/span&gt;" style="shape=partialRectangle;html=1;whiteSpace=wrap;connectable=0;strokeColor=inherit;overflow=hidden;fillColor=none;top=0;left=0;bottom=0;right=0;pointerEvents=1;fontFamily=Comic Sans MS;fontSize=16;align=right;spacingRight=10;fontStyle=1" parent="6OoKiLkSBYol4CkCHbGb-310" vertex="1">
          <mxGeometry width="186" height="40" as="geometry">
            <mxRectangle width="186" height="40" as="alternateBounds" />
          </mxGeometry>
        </mxCell>
        <mxCell id="6OoKiLkSBYol4CkCHbGb-312" value="&lt;b style=&quot;text-wrap: nowrap; text-align: center;&quot;&gt;Товар (дочерняя сущность)&lt;/b&gt;" style="shape=partialRectangle;html=1;whiteSpace=wrap;connectable=0;strokeColor=inherit;overflow=hidden;fillColor=none;top=0;left=0;bottom=0;right=0;pointerEvents=1;fontFamily=Comic Sans MS;fontSize=16;align=left;spacingLeft=10;" parent="6OoKiLkSBYol4CkCHbGb-310" vertex="1">
          <mxGeometry x="186" width="336" height="40" as="geometry">
            <mxRectangle width="336" height="40" as="alternateBounds" />
          </mxGeometry>
        </mxCell>
        <mxCell id="6OoKiLkSBYol4CkCHbGb-313" value="" style="shape=tableRow;horizontal=0;startSize=0;swimlaneHead=0;swimlaneBody=0;strokeColor=inherit;top=0;left=0;bottom=0;right=0;collapsible=0;dropTarget=0;fillColor=none;points=[[0,0.5],[1,0.5]];portConstraint=eastwest;fontFamily=Comic Sans MS;fontSize=16;" parent="6OoKiLkSBYol4CkCHbGb-303" vertex="1">
          <mxGeometry y="120" width="522" height="40" as="geometry" />
        </mxCell>
        <mxCell id="6OoKiLkSBYol4CkCHbGb-314" value="&lt;span style=&quot;&quot;&gt;operation_type&lt;/span&gt;" style="shape=partialRectangle;html=1;whiteSpace=wrap;connectable=0;strokeColor=inherit;overflow=hidden;fillColor=none;top=0;left=0;bottom=0;right=0;pointerEvents=1;fontFamily=Comic Sans MS;fontSize=16;align=right;spacingRight=10;fontStyle=1" parent="6OoKiLkSBYol4CkCHbGb-313" vertex="1">
          <mxGeometry width="186" height="40" as="geometry">
            <mxRectangle width="186" height="40" as="alternateBounds" />
          </mxGeometry>
        </mxCell>
        <mxCell id="6OoKiLkSBYol4CkCHbGb-315" value="&lt;span style=&quot;text-align: right;&quot;&gt;Тип операции&lt;/span&gt;" style="shape=partialRectangle;html=1;whiteSpace=wrap;connectable=0;strokeColor=inherit;overflow=hidden;fillColor=none;top=0;left=0;bottom=0;right=0;pointerEvents=1;fontFamily=Comic Sans MS;fontSize=16;align=left;spacingLeft=10;" parent="6OoKiLkSBYol4CkCHbGb-313" vertex="1">
          <mxGeometry x="186" width="336" height="40" as="geometry">
            <mxRectangle width="336" height="40" as="alternateBounds" />
          </mxGeometry>
        </mxCell>
        <mxCell id="6OoKiLkSBYol4CkCHbGb-316" value="" style="shape=tableRow;horizontal=0;startSize=0;swimlaneHead=0;swimlaneBody=0;strokeColor=inherit;top=0;left=0;bottom=0;right=0;collapsible=0;dropTarget=0;fillColor=none;points=[[0,0.5],[1,0.5]];portConstraint=eastwest;fontFamily=Comic Sans MS;fontSize=16;" parent="6OoKiLkSBYol4CkCHbGb-303" vertex="1">
          <mxGeometry y="160" width="522" height="40" as="geometry" />
        </mxCell>
        <mxCell id="6OoKiLkSBYol4CkCHbGb-317" value="operation_timestamp" style="shape=partialRectangle;html=1;whiteSpace=wrap;connectable=0;strokeColor=inherit;overflow=hidden;fillColor=none;top=0;left=0;bottom=0;right=0;pointerEvents=1;fontFamily=Comic Sans MS;fontSize=16;align=right;spacingRight=10;fontStyle=1" parent="6OoKiLkSBYol4CkCHbGb-316" vertex="1">
          <mxGeometry width="186" height="40" as="geometry">
            <mxRectangle width="186" height="40" as="alternateBounds" />
          </mxGeometry>
        </mxCell>
        <mxCell id="6OoKiLkSBYol4CkCHbGb-318" value="Дата и время операции" style="shape=partialRectangle;html=1;whiteSpace=wrap;connectable=0;strokeColor=inherit;overflow=hidden;fillColor=none;top=0;left=0;bottom=0;right=0;pointerEvents=1;fontFamily=Comic Sans MS;fontSize=16;align=left;spacingLeft=10;" parent="6OoKiLkSBYol4CkCHbGb-316" vertex="1">
          <mxGeometry x="186" width="336" height="40" as="geometry">
            <mxRectangle width="336" height="40" as="alternateBounds" />
          </mxGeometry>
        </mxCell>
        <mxCell id="6OoKiLkSBYol4CkCHbGb-319" style="shape=tableRow;horizontal=0;startSize=0;swimlaneHead=0;swimlaneBody=0;strokeColor=inherit;top=0;left=0;bottom=0;right=0;collapsible=0;dropTarget=0;fillColor=none;points=[[0,0.5],[1,0.5]];portConstraint=eastwest;fontFamily=Comic Sans MS;fontSize=16;" parent="6OoKiLkSBYol4CkCHbGb-303" vertex="1">
          <mxGeometry y="200" width="522" height="40" as="geometry" />
        </mxCell>
        <mxCell id="6OoKiLkSBYol4CkCHbGb-320" value="operation_qty" style="shape=partialRectangle;html=1;whiteSpace=wrap;connectable=0;strokeColor=inherit;overflow=hidden;fillColor=none;top=0;left=0;bottom=0;right=0;pointerEvents=1;fontFamily=Comic Sans MS;fontSize=16;align=right;spacingRight=10;fontStyle=1" parent="6OoKiLkSBYol4CkCHbGb-319" vertex="1">
          <mxGeometry width="186" height="40" as="geometry">
            <mxRectangle width="186" height="40" as="alternateBounds" />
          </mxGeometry>
        </mxCell>
        <mxCell id="6OoKiLkSBYol4CkCHbGb-321" value="&lt;span style=&quot;text-align: right;&quot;&gt;Количество Товара&lt;/span&gt;" style="shape=partialRectangle;html=1;whiteSpace=wrap;connectable=0;strokeColor=inherit;overflow=hidden;fillColor=none;top=0;left=0;bottom=0;right=0;pointerEvents=1;fontFamily=Comic Sans MS;fontSize=16;align=left;spacingLeft=10;" parent="6OoKiLkSBYol4CkCHbGb-319" vertex="1">
          <mxGeometry x="186" width="336" height="40" as="geometry">
            <mxRectangle width="336" height="40" as="alternateBounds" />
          </mxGeometry>
        </mxCell>
      </root>
    </mxGraphModel>
  </diagram>
</mxfile>
